{"title":"The Attacks of 26/11 2013 Hindi Movies HD DVD New Source Sample ","uid":8290810,"size":734639230,"categoryP":"video","categoryS":"movies","magnet":"?xt=urn:btih:d723c715acf176745206f7e0cdff76005db0a3a7&amp;dn=The+Attacks+of+26%2F11+2013+Hindi+Movies+HD+DVD+New+Source+Sample+&amp;tr=udp%3A%2F%2Ftracker.openbittorrent.com%3A80&amp;tr=udp%3A%2F%2Fopen.demonii.com%3A1337&amp;tr=udp%3A%2F%2Ftracker.coppersurfer.tk%3A6969&amp;tr=udp%3A%2F%2Fexodus.desync.com%3A6969","seeders":3,"leechers":0,"uploader":"basicssom","files":2,"time":1363997892,"description":"The Attacks of 26/11 2013 Hindi Movies HD DVD New Source Sample Included ~ rDX\n\nScreen Shots :\n &lt;a href=&quot;\nhttp://myimghosting.serveftp.com/13/TheAttacksof2611DVD.html&quot; rel=&quot;nofollow&quot; target=&quot;_NEW&quot;&gt;\nhttp://myimghosting.serveftp.com/13/TheAttacksof2611DVD.html&lt;/a&gt;\n &lt;a href=&quot;\nhttp://myimghost.cwahi.net/TheAttacksof2611DVD.html&quot; rel=&quot;nofollow&quot; target=&quot;_NEW&quot;&gt;\nhttp://myimghost.cwahi.net/TheAttacksof2611DVD.html&lt;/a&gt;\n\n\nFormat                                   : AVI\nFormat/Info                              : Audio Video Interleave\nFile size                                : 691 MiB\nDuration                                 : 1h 55mn\nOverall bit rate mode                    : Variable\nOverall bit rate                         : 837 Kbps\nWriting library                          : MPlayer\n\nVideo\nID                                       : 0\nFormat                                   : MPEG-4 Visual\nFormat profile                           : Advanced Simple@L5\nFormat settings, BVOP                    : 1\nFormat settings, QPel                    : No\nFormat settings, GMC                     : No warppoints\nFormat settings, Matrix                  : Custom\nCodec ID                                 : XVID\nCodec ID/Hint                            : XviD\nDuration                                 : 1h 55mn\nBit rate                                 : 736 Kbps\nWidth                                    : 640 pixels\nHeight                                   : 272 pixels\nDisplay aspect ratio                     : 2.35:1\nFrame rate                               : 24.000 fps\nColor space                              : YUV\nChroma subsampling                       : 4:2:0\nBit depth                                : 8 bits\nScan type                                : Progressive\nCompression mode                         : Lossy\nBits/(Pixel*Frame)                       : 0.176\nStream size                              : 607 MiB (88%)\nWriting library                          : XviD 1.2.1 (UTC 2008-12-04)\n\nAudio\nID                                       : 1\nFormat                                   : MPEG Audio\nFormat version                           : Version 1\nFormat profile                           : Layer 3\nMode                                     : Joint stereo\nCodec ID                                 : 55\nCodec ID/Hint                            : MP3\nDuration                                 : 1h 55mn\nBit rate mode                            : Variable\nBit rate                                 : 91.4 Kbps\nChannel(s)                               : 2 channels\nSampling rate                            : 32.0 KHz\nCompression mode                         : Lossy\nStream size                              : 75.4 MiB (11%)\nAlignment                                : Aligned on interleaves\nInterleave, duration                     : 36 ms (0.86 video frame)\nInterleave, preload duration             : 485 ms","torrent":{"xt":"urn:btih:d723c715acf176745206f7e0cdff76005db0a3a7","amp;dn":"The+Attacks+of+26%2F11+2013+Hindi+Movies+HD+DVD+New+Source+Sample+","amp;tr":["udp%3A%2F%2Ftracker.openbittorrent.com%3A80","udp%3A%2F%2Fopen.demonii.com%3A1337","udp%3A%2F%2Ftracker.coppersurfer.tk%3A6969","udp%3A%2F%2Fexodus.desync.com%3A6969"],"infoHash":"d723c715acf176745206f7e0cdff76005db0a3a7","infoHashBuffer":{"type":"Buffer","data":[215,35,199,21,172,241,118,116,82,6,247,224,205,255,118,0,93,176,163,167]},"announce":[],"urlList":[]}}